<mxfile host="app.diagrams.net" modified="2021-08-01T20:34:41.010Z" agent="5.0 (Windows NT 10.0; Win64; x64) AppleWebKit/537.36 (KHTML, like Gecko) Chrome/92.0.4515.115 Safari/537.36" etag="2GgIQAAV951_I1HKZXSB" version="14.9.3" type="github" pages="5">
  <diagram name="Abstract Factory" id="c4acf3e9-155e-7222-9cf6-157b1a14988f">
    <mxGraphModel dx="1872" dy="472" grid="1" gridSize="10" guides="1" tooltips="1" connect="1" arrows="1" fold="1" page="1" pageScale="1" pageWidth="850" pageHeight="1100" background="none" math="0" shadow="0">
      <root>
        <mxCell id="0" />
        <mxCell id="1" parent="0" />
        <mxCell id="BzZ10aJKYdkIl8jqPXN0-14" style="edgeStyle=orthogonalEdgeStyle;rounded=0;orthogonalLoop=1;jettySize=auto;html=1;exitX=0;exitY=0.5;exitDx=0;exitDy=0;entryX=0.5;entryY=0;entryDx=0;entryDy=0;" edge="1" parent="1" source="BzZ10aJKYdkIl8jqPXN0-1" target="BzZ10aJKYdkIl8jqPXN0-7">
          <mxGeometry relative="1" as="geometry" />
        </mxCell>
        <mxCell id="BzZ10aJKYdkIl8jqPXN0-15" style="edgeStyle=orthogonalEdgeStyle;rounded=0;orthogonalLoop=1;jettySize=auto;html=1;exitX=1;exitY=0.5;exitDx=0;exitDy=0;entryX=0.5;entryY=0;entryDx=0;entryDy=0;" edge="1" parent="1" source="BzZ10aJKYdkIl8jqPXN0-1" target="BzZ10aJKYdkIl8jqPXN0-2">
          <mxGeometry relative="1" as="geometry" />
        </mxCell>
        <mxCell id="BzZ10aJKYdkIl8jqPXN0-1" value="&lt;b&gt;Client&lt;/b&gt;" style="html=1;" vertex="1" parent="1">
          <mxGeometry x="180" y="50" width="110" height="50" as="geometry" />
        </mxCell>
        <mxCell id="BzZ10aJKYdkIl8jqPXN0-2" value="&amp;laquo;interface&amp;raquo;&lt;br&gt;&lt;b&gt;Name&lt;/b&gt;" style="html=1;" vertex="1" parent="1">
          <mxGeometry x="330" y="100" width="110" height="50" as="geometry" />
        </mxCell>
        <mxCell id="BzZ10aJKYdkIl8jqPXN0-19" style="endArrow=block;endSize=16;endFill=0;html=1;exitX=0.5;exitY=0;exitDx=0;exitDy=0;entryX=0.5;entryY=1;entryDx=0;entryDy=0;" edge="1" parent="1" source="BzZ10aJKYdkIl8jqPXN0-3" target="BzZ10aJKYdkIl8jqPXN0-7">
          <mxGeometry relative="1" as="geometry">
            <Array as="points" />
          </mxGeometry>
        </mxCell>
        <mxCell id="BzZ10aJKYdkIl8jqPXN0-3" value="ConcreteFactory" style="swimlane;fontStyle=1;align=center;verticalAlign=top;childLayout=stackLayout;horizontal=1;startSize=26;horizontalStack=0;resizeParent=1;resizeParentMax=0;resizeLast=0;collapsible=1;marginBottom=0;" vertex="1" parent="1">
          <mxGeometry x="-5" y="270" width="160" height="70" as="geometry" />
        </mxCell>
        <mxCell id="BzZ10aJKYdkIl8jqPXN0-4" value="+ createProductA()&#xa;+ createProductB()" style="text;strokeColor=none;fillColor=none;align=left;verticalAlign=top;spacingLeft=4;spacingRight=4;overflow=hidden;rotatable=0;points=[[0,0.5],[1,0.5]];portConstraint=eastwest;" vertex="1" parent="BzZ10aJKYdkIl8jqPXN0-3">
          <mxGeometry y="26" width="160" height="44" as="geometry" />
        </mxCell>
        <mxCell id="BzZ10aJKYdkIl8jqPXN0-7" value="&lt;p style=&quot;margin: 0px ; margin-top: 4px ; text-align: center&quot;&gt;&lt;i&gt;&amp;lt;&amp;lt;Interface&amp;gt;&amp;gt;&lt;/i&gt;&lt;br&gt;&lt;b&gt;AbstractFactory&lt;/b&gt;&lt;/p&gt;&lt;hr size=&quot;1&quot;&gt;&lt;p style=&quot;margin: 0px ; margin-left: 4px&quot;&gt;+ createProductA()&lt;br&gt;+ createProductB()&lt;br&gt;&lt;/p&gt;" style="verticalAlign=top;align=left;overflow=fill;fontSize=12;fontFamily=Helvetica;html=1;" vertex="1" parent="1">
          <mxGeometry x="-20" y="110" width="190" height="80" as="geometry" />
        </mxCell>
        <mxCell id="BzZ10aJKYdkIl8jqPXN0-8" value="ConcreteProduct" style="html=1;" vertex="1" parent="1">
          <mxGeometry x="330" y="270" width="110" height="50" as="geometry" />
        </mxCell>
        <mxCell id="BzZ10aJKYdkIl8jqPXN0-20" style="endArrow=block;endSize=16;endFill=0;html=1;exitX=0.5;exitY=0;exitDx=0;exitDy=0;entryX=0.5;entryY=1;entryDx=0;entryDy=0;" edge="1" parent="1" source="BzZ10aJKYdkIl8jqPXN0-8" target="BzZ10aJKYdkIl8jqPXN0-2">
          <mxGeometry relative="1" as="geometry">
            <mxPoint x="85" y="280" as="sourcePoint" />
            <mxPoint x="85" y="200" as="targetPoint" />
            <Array as="points" />
          </mxGeometry>
        </mxCell>
        <mxCell id="jGHYaLPVD4dRBC5Bv7VS-11" value="&lt;p style=&quot;margin: 0px ; margin-top: 4px ; text-align: center&quot;&gt;&lt;b&gt;Application&lt;/b&gt;&lt;/p&gt;&lt;hr size=&quot;1&quot;&gt;&lt;p style=&quot;margin: 0px ; margin-left: 4px&quot;&gt;- factory: VehicleFactory&lt;br&gt;- bicycle: Bicycle&lt;br&gt;&lt;/p&gt;&lt;p style=&quot;margin: 0px ; margin-left: 4px&quot;&gt;- scooter: Scooter&lt;/p&gt;" style="verticalAlign=top;align=left;overflow=fill;fontSize=12;fontFamily=Helvetica;html=1;" vertex="1" parent="1">
          <mxGeometry x="840" y="190" width="190" height="80" as="geometry" />
        </mxCell>
        <mxCell id="jGHYaLPVD4dRBC5Bv7VS-13" value="&lt;p style=&quot;margin: 0px ; margin-top: 4px ; text-align: center&quot;&gt;&lt;i&gt;&amp;lt;&amp;lt;Interface&amp;gt;&amp;gt;&lt;/i&gt;&lt;br&gt;&lt;span style=&quot;text-align: left&quot;&gt;&lt;b&gt;VehicleFactory&lt;/b&gt;&lt;/span&gt;&lt;br&gt;&lt;/p&gt;&lt;hr size=&quot;1&quot;&gt;&lt;p style=&quot;margin: 0px ; margin-left: 4px&quot;&gt;+ createBicycle() : Bicycle&lt;br&gt;+ createProductB()&lt;br&gt;&lt;/p&gt;" style="verticalAlign=top;align=left;overflow=fill;fontSize=12;fontFamily=Helvetica;html=1;" vertex="1" parent="1">
          <mxGeometry x="600" y="190" width="190" height="80" as="geometry" />
        </mxCell>
      </root>
    </mxGraphModel>
  </diagram>
  <diagram id="Svipk-x8OSGcu9Js8fru" name="Builder">
    <mxGraphModel dx="1108" dy="520" grid="1" gridSize="10" guides="1" tooltips="1" connect="1" arrows="1" fold="1" page="1" pageScale="1" pageWidth="850" pageHeight="1100" math="0" shadow="0">
      <root>
        <mxCell id="K4EH5ydkyuwT2IJZEQ6V-0" />
        <mxCell id="K4EH5ydkyuwT2IJZEQ6V-1" parent="K4EH5ydkyuwT2IJZEQ6V-0" />
      </root>
    </mxGraphModel>
  </diagram>
  <diagram id="MaCqoC3K-G2AlwnfR-V4" name="Factory Method">
    <mxGraphModel dx="1460" dy="674" grid="1" gridSize="10" guides="1" tooltips="1" connect="1" arrows="1" fold="1" page="1" pageScale="1" pageWidth="850" pageHeight="1100" math="0" shadow="0">
      <root>
        <mxCell id="TtsaoLJp0uNtPOPy8J0C-0" />
        <mxCell id="TtsaoLJp0uNtPOPy8J0C-1" parent="TtsaoLJp0uNtPOPy8J0C-0" />
        <mxCell id="SalfBSM_50r_KYWC8fBK-11" value="&lt;p style=&quot;margin: 0px ; margin-top: 4px ; text-align: center&quot;&gt;&lt;i&gt;&amp;lt;&amp;lt;Interface&amp;gt;&amp;gt;&lt;/i&gt;&lt;br&gt;&lt;span style=&quot;text-align: left&quot;&gt;&lt;b&gt;Scooter&lt;/b&gt;&lt;/span&gt;&lt;br&gt;&lt;/p&gt;&lt;hr size=&quot;1&quot;&gt;&lt;p style=&quot;margin: 0px ; margin-left: 4px&quot;&gt;&lt;br&gt;&lt;/p&gt;" style="verticalAlign=top;align=left;overflow=fill;fontSize=12;fontFamily=Helvetica;html=1;" vertex="1" parent="TtsaoLJp0uNtPOPy8J0C-1">
          <mxGeometry x="550" y="110" width="190" height="60" as="geometry" />
        </mxCell>
        <mxCell id="SalfBSM_50r_KYWC8fBK-13" value="&lt;b&gt;Electrical&lt;br&gt;Scooter&lt;/b&gt;" style="html=1;" vertex="1" parent="TtsaoLJp0uNtPOPy8J0C-1">
          <mxGeometry x="480" y="210" width="110" height="50" as="geometry" />
        </mxCell>
        <mxCell id="SalfBSM_50r_KYWC8fBK-14" value="&lt;b&gt;Mechanical&lt;br&gt;Scooter&lt;/b&gt;" style="html=1;" vertex="1" parent="TtsaoLJp0uNtPOPy8J0C-1">
          <mxGeometry x="700" y="210" width="110" height="50" as="geometry" />
        </mxCell>
        <mxCell id="SalfBSM_50r_KYWC8fBK-19" value="" style="endArrow=block;dashed=1;endFill=0;endSize=12;html=1;entryX=0.5;entryY=1;entryDx=0;entryDy=0;exitX=0.5;exitY=0;exitDx=0;exitDy=0;edgeStyle=orthogonalEdgeStyle;" edge="1" parent="TtsaoLJp0uNtPOPy8J0C-1" source="SalfBSM_50r_KYWC8fBK-13" target="SalfBSM_50r_KYWC8fBK-11">
          <mxGeometry width="160" relative="1" as="geometry">
            <mxPoint x="380" y="200" as="sourcePoint" />
            <mxPoint x="540" y="200" as="targetPoint" />
          </mxGeometry>
        </mxCell>
        <mxCell id="SalfBSM_50r_KYWC8fBK-20" value="" style="endArrow=block;dashed=1;endFill=0;endSize=12;html=1;entryX=0.5;entryY=1;entryDx=0;entryDy=0;exitX=0.5;exitY=0;exitDx=0;exitDy=0;edgeStyle=orthogonalEdgeStyle;" edge="1" parent="TtsaoLJp0uNtPOPy8J0C-1" source="SalfBSM_50r_KYWC8fBK-14" target="SalfBSM_50r_KYWC8fBK-11">
          <mxGeometry width="160" relative="1" as="geometry">
            <mxPoint x="555" y="220" as="sourcePoint" />
            <mxPoint x="655" y="180" as="targetPoint" />
          </mxGeometry>
        </mxCell>
        <mxCell id="SalfBSM_50r_KYWC8fBK-21" value="ScooterFactory" style="swimlane;fontStyle=1;align=center;verticalAlign=top;childLayout=stackLayout;horizontal=1;startSize=26;horizontalStack=0;resizeParent=1;resizeParentMax=0;resizeLast=0;collapsible=1;marginBottom=0;" vertex="1" parent="TtsaoLJp0uNtPOPy8J0C-1">
          <mxGeometry x="190" y="114" width="160" height="56" as="geometry" />
        </mxCell>
        <mxCell id="SalfBSM_50r_KYWC8fBK-22" value="+ createScooter()" style="text;strokeColor=none;fillColor=none;align=left;verticalAlign=top;spacingLeft=4;spacingRight=4;overflow=hidden;rotatable=0;points=[[0,0.5],[1,0.5]];portConstraint=eastwest;" vertex="1" parent="SalfBSM_50r_KYWC8fBK-21">
          <mxGeometry y="26" width="160" height="30" as="geometry" />
        </mxCell>
        <mxCell id="SalfBSM_50r_KYWC8fBK-23" value="ElectricalScooterFactory" style="swimlane;fontStyle=1;align=center;verticalAlign=top;childLayout=stackLayout;horizontal=1;startSize=26;horizontalStack=0;resizeParent=1;resizeParentMax=0;resizeLast=0;collapsible=1;marginBottom=0;" vertex="1" parent="TtsaoLJp0uNtPOPy8J0C-1">
          <mxGeometry x="60" y="230" width="180" height="60" as="geometry" />
        </mxCell>
        <mxCell id="SalfBSM_50r_KYWC8fBK-24" value="+ createScooter()" style="text;strokeColor=none;fillColor=none;align=left;verticalAlign=top;spacingLeft=4;spacingRight=4;overflow=hidden;rotatable=0;points=[[0,0.5],[1,0.5]];portConstraint=eastwest;" vertex="1" parent="SalfBSM_50r_KYWC8fBK-23">
          <mxGeometry y="26" width="180" height="34" as="geometry" />
        </mxCell>
        <mxCell id="SalfBSM_50r_KYWC8fBK-25" value="MechanicalScooterFactory" style="swimlane;fontStyle=1;align=center;verticalAlign=top;childLayout=stackLayout;horizontal=1;startSize=26;horizontalStack=0;resizeParent=1;resizeParentMax=0;resizeLast=0;collapsible=1;marginBottom=0;" vertex="1" parent="TtsaoLJp0uNtPOPy8J0C-1">
          <mxGeometry x="290" y="230" width="180" height="60" as="geometry" />
        </mxCell>
        <mxCell id="SalfBSM_50r_KYWC8fBK-26" value="+ createScooter()" style="text;strokeColor=none;fillColor=none;align=left;verticalAlign=top;spacingLeft=4;spacingRight=4;overflow=hidden;rotatable=0;points=[[0,0.5],[1,0.5]];portConstraint=eastwest;" vertex="1" parent="SalfBSM_50r_KYWC8fBK-25">
          <mxGeometry y="26" width="180" height="34" as="geometry" />
        </mxCell>
        <mxCell id="SalfBSM_50r_KYWC8fBK-31" value="" style="endArrow=block;dashed=0;endFill=0;endSize=12;html=1;entryX=0.5;entryY=1;entryDx=0;entryDy=0;exitX=0.5;exitY=0;exitDx=0;exitDy=0;edgeStyle=orthogonalEdgeStyle;" edge="1" parent="TtsaoLJp0uNtPOPy8J0C-1" source="SalfBSM_50r_KYWC8fBK-23" target="SalfBSM_50r_KYWC8fBK-21">
          <mxGeometry width="160" relative="1" as="geometry">
            <mxPoint x="200" y="200" as="sourcePoint" />
            <mxPoint x="360" y="200" as="targetPoint" />
          </mxGeometry>
        </mxCell>
        <mxCell id="SalfBSM_50r_KYWC8fBK-32" value="" style="endArrow=block;dashed=0;endFill=0;endSize=12;html=1;entryX=0.5;entryY=1;entryDx=0;entryDy=0;exitX=0.5;exitY=0;exitDx=0;exitDy=0;edgeStyle=orthogonalEdgeStyle;" edge="1" parent="TtsaoLJp0uNtPOPy8J0C-1" source="SalfBSM_50r_KYWC8fBK-25" target="SalfBSM_50r_KYWC8fBK-21">
          <mxGeometry width="160" relative="1" as="geometry">
            <mxPoint x="160" y="240" as="sourcePoint" />
            <mxPoint x="270" y="176" as="targetPoint" />
          </mxGeometry>
        </mxCell>
        <mxCell id="SalfBSM_50r_KYWC8fBK-36" value="" style="endArrow=open;endSize=12;dashed=1;html=1;entryX=0;entryY=0.5;entryDx=0;entryDy=0;exitX=1;exitY=0.002;exitDx=0;exitDy=0;exitPerimeter=0;" edge="1" parent="TtsaoLJp0uNtPOPy8J0C-1" source="SalfBSM_50r_KYWC8fBK-22" target="SalfBSM_50r_KYWC8fBK-11">
          <mxGeometry width="160" relative="1" as="geometry">
            <mxPoint x="390" y="224" as="sourcePoint" />
            <mxPoint x="500" y="160" as="targetPoint" />
          </mxGeometry>
        </mxCell>
        <mxCell id="SalfBSM_50r_KYWC8fBK-39" value="&lt;font style=&quot;font-size: 18px&quot;&gt;&lt;b&gt;Factory Method&lt;/b&gt;&lt;/font&gt;" style="text;html=1;strokeColor=none;fillColor=none;align=center;verticalAlign=middle;whiteSpace=wrap;rounded=0;" vertex="1" parent="TtsaoLJp0uNtPOPy8J0C-1">
          <mxGeometry x="330" y="40" width="180" height="20" as="geometry" />
        </mxCell>
      </root>
    </mxGraphModel>
  </diagram>
  <diagram id="WrU60CYk25x6iUcZn2zx" name="Prototype">
    <mxGraphModel dx="1108" dy="520" grid="1" gridSize="10" guides="1" tooltips="1" connect="1" arrows="1" fold="1" page="1" pageScale="1" pageWidth="850" pageHeight="1100" math="0" shadow="0">
      <root>
        <mxCell id="xfMzOjdkBIME0fWs6_Vc-0" />
        <mxCell id="xfMzOjdkBIME0fWs6_Vc-1" parent="xfMzOjdkBIME0fWs6_Vc-0" />
      </root>
    </mxGraphModel>
  </diagram>
  <diagram id="OYyfgTfCXXCCYheqO48G" name="Singleton">
    <mxGraphModel dx="1108" dy="520" grid="1" gridSize="10" guides="1" tooltips="1" connect="1" arrows="1" fold="1" page="1" pageScale="1" pageWidth="850" pageHeight="1100" math="0" shadow="0">
      <root>
        <mxCell id="LXMlgBPtZJWpeBORt-nU-0" />
        <mxCell id="LXMlgBPtZJWpeBORt-nU-1" parent="LXMlgBPtZJWpeBORt-nU-0" />
      </root>
    </mxGraphModel>
  </diagram>
</mxfile>
